<svg width="21" height="20" viewBox="0 0 21 20" fill="none" xmlns="http://www.w3.org/2000/svg">
    <mask id="mask0_440_165" style="mask-type:alpha" maskUnits="userSpaceOnUse" x="0" y="0" width="21" height="20">
        <rect x="0.199951" width="20" height="20" fill="#D9D9D9"/>
    </mask>
    <g mask="url(#mask0_440_165)">
        <path d="M8.6578 16.789L8.65689 16.7882C7.25029 15.5208 6.08373 14.4243 5.15886 13.4994C4.23156 12.5721 3.48446 11.7304 2.92354 10.9753C2.363 10.2207 1.95503 9.50596 1.7179 8.83282C1.48409 8.16911 1.36658 7.48797 1.36658 6.79169C1.36658 5.36164 1.85117 4.14166 2.82552 3.16731C3.79988 2.19295 5.01986 1.70836 6.44991 1.70836C7.24524 1.70836 8.00511 1.87717 8.72438 2.21385C9.27449 2.47135 9.76682 2.81006 10.1999 3.22826C10.633 2.81006 11.1253 2.47135 11.6754 2.21385M8.6578 16.789L11.6754 2.21385C11.6754 2.21385 11.6754 2.21385 11.6754 2.21385M8.6578 16.789C9.53535 17.5757 10.8645 17.5757 11.742 16.789L11.7429 16.7882C13.1495 15.5208 14.3161 14.4243 15.241 13.4994C16.1683 12.5721 16.9154 11.7304 17.4763 10.9753C18.0368 10.2207 18.4448 9.50596 18.6819 8.83282C18.9157 8.16911 19.0332 7.48797 19.0332 6.79169C19.0332 5.36164 18.5487 4.14166 17.5743 3.16731C16.5999 2.19295 15.38 1.70836 13.9499 1.70836C13.1546 1.70836 12.3947 1.87717 11.6754 2.21385V2.21385M8.6578 16.789L11.6754 2.21385M11.6754 2.21385L11.8874 2.66669M11.6754 2.21385L10.5438 3.59129C10.9384 3.20944 11.3863 2.90124 11.8874 2.66669M11.8874 2.66669C12.5402 2.36114 13.2277 2.20836 13.9499 2.20836C15.2555 2.20836 16.3457 2.64586 17.2207 3.52086C18.0957 4.39586 18.5332 5.48614 18.5332 6.79169C18.5332 7.43058 18.4256 8.05558 18.2103 8.66669C17.9951 9.2778 17.6166 9.94794 17.0749 10.6771C16.5332 11.4063 15.8041 12.2292 14.8874 13.1459C13.9707 14.0625 12.811 15.1528 11.4082 16.4167L11.8874 2.66669Z" stroke="#707071"/>
    </g>
</svg>